<svg xmlns="http://www.w3.org/2000/svg" xmlns:xlink="http://www.w3.org/1999/xlink" width="405" height="99" viewBox="0 0 405 99">
  <defs>
    <clipPath id="clip-login-head">
      <rect width="405" height="99"/>
    </clipPath>
  </defs>
  <g id="login-head" clip-path="url(#clip-login-head)">
    <g id="pb_available" transform="translate(4 1)">
      <path id="Path_1" data-name="Path 1" d="M0,17.279A2.279,2.279,0,0,1,2.279,15H395.054a2.279,2.279,0,0,1,2.262,2.561L391.036,67.8a2.279,2.279,0,0,1-2.142,1.993L2.4,90.072A2.279,2.279,0,0,1,0,87.8Z" transform="translate(0 1.812)" fill="#4a70f6"/>
      <circle id="Ellipse_1" data-name="Ellipse 1" cx="1.277" cy="1.277" r="1.277" transform="matrix(-0.689, -0.725, 0.725, -0.689, 385.226, 66.789)" fill="none" stroke="#fff" stroke-width="0.757"/>
      <g id="Group_1" data-name="Group 1" transform="translate(207.212 43.76)">
        <circle id="Ellipse_2" data-name="Ellipse 2" cx="35.55" cy="35.55" r="35.55" transform="translate(0 20.837) rotate(-17.042)" fill="none" stroke="#fff" stroke-width="1.3"/>
      </g>
      <circle id="Ellipse_3" data-name="Ellipse 3" cx="5.73" cy="5.73" r="5.73" transform="matrix(-0.689, -0.725, 0.725, -0.689, 290.034, 42.828)" fill="none" stroke="#ffcc21" stroke-width="2.286"/>
      <circle id="Ellipse_4" data-name="Ellipse 4" cx="2.531" cy="2.531" r="2.531" transform="matrix(-0.689, -0.725, 0.725, -0.689, 282.699, 56.17)" fill="none" stroke="#fff" stroke-width="1.5"/>
      <path id="Path_2" data-name="Path 2" d="M278,32.763A30.762,30.762,0,0,1,308.763,2h0a30.762,30.762,0,0,1,30.763,30.763h0a30.762,30.762,0,0,1-30.763,30.763h0A30.762,30.762,0,0,1,278,32.763Z" transform="translate(38.741 1)" fill="none" stroke="#ffcc21" stroke-width="2.111"/>
      <path id="Path_3" data-name="Path 3" d="M306.848,2C292.407,2,280.7,14.127,280.7,29.086s11.707,27.086,26.148,27.086h3.076c14.441,0,26.148-12.127,26.148-27.086S324.366,2,309.925,2Z" transform="translate(39.118 1)" fill="#ffcc21" fill-rule="evenodd"/>
      <g id="Group_2" data-name="Group 2" transform="translate(249.519 41.877)" opacity="0.15">
        <circle id="Ellipse_5" data-name="Ellipse 5" cx="1" cy="1" r="1" transform="translate(0.481 48.123)" fill="#d5f3eb"/>
        <circle id="Ellipse_6" data-name="Ellipse 6" cx="1" cy="1" r="1" transform="translate(20.481 48.123)" fill="#d5f3eb"/>
        <ellipse id="Ellipse_7" data-name="Ellipse 7" cx="1.5" cy="1" rx="1.5" ry="1" transform="translate(47.481 48.123)" fill="#d5f3eb"/>
        <ellipse id="Ellipse_8" data-name="Ellipse 8" cx="1.5" cy="1" rx="1.5" ry="1" transform="translate(6.481 48.123)" fill="#d5f3eb"/>
        <circle id="Ellipse_9" data-name="Ellipse 9" cx="1" cy="1" r="1" transform="translate(27.481 48.123)" fill="#d5f3eb"/>
        <circle id="Ellipse_10" data-name="Ellipse 10" cx="1" cy="1" r="1" transform="translate(54.481 48.123)" fill="#d5f3eb"/>
        <circle id="Ellipse_11" data-name="Ellipse 11" cx="1" cy="1" r="1" transform="translate(13.481 48.123)" fill="#d5f3eb"/>
        <circle id="Ellipse_12" data-name="Ellipse 12" cx="1" cy="1" r="1" transform="translate(41.481 48.123)" fill="#d5f3eb"/>
        <circle id="Ellipse_13" data-name="Ellipse 13" cx="1" cy="1" r="1" transform="translate(34.481 48.123)" fill="#d5f3eb"/>
        <circle id="Ellipse_14" data-name="Ellipse 14" cx="1" cy="1" r="1" transform="translate(68.481 48.123)" fill="#d5f3eb"/>
        <circle id="Ellipse_15" data-name="Ellipse 15" cx="1" cy="1" r="1" transform="translate(61.481 48.123)" fill="#d5f3eb"/>
        <ellipse id="Ellipse_16" data-name="Ellipse 16" cx="1" cy="1.5" rx="1" ry="1.5" transform="translate(0.481 20.123)" fill="#d5f3eb"/>
        <ellipse id="Ellipse_17" data-name="Ellipse 17" cx="1" cy="1.5" rx="1" ry="1.5" transform="translate(20.481 20.123)" fill="#d5f3eb"/>
        <circle id="Ellipse_18" data-name="Ellipse 18" cx="1.5" cy="1.5" r="1.5" transform="translate(47.481 20.123)" fill="#d5f3eb"/>
        <circle id="Ellipse_19" data-name="Ellipse 19" cx="1.5" cy="1.5" r="1.5" transform="translate(6.481 20.123)" fill="#d5f3eb"/>
        <ellipse id="Ellipse_20" data-name="Ellipse 20" cx="1" cy="1.5" rx="1" ry="1.5" transform="translate(27.481 20.123)" fill="#d5f3eb"/>
        <ellipse id="Ellipse_21" data-name="Ellipse 21" cx="1" cy="1.5" rx="1" ry="1.5" transform="translate(54.481 20.123)" fill="#d5f3eb"/>
        <ellipse id="Ellipse_22" data-name="Ellipse 22" cx="1" cy="1.5" rx="1" ry="1.5" transform="translate(13.481 20.123)" fill="#d5f3eb"/>
        <ellipse id="Ellipse_23" data-name="Ellipse 23" cx="1" cy="1.5" rx="1" ry="1.5" transform="translate(41.481 20.123)" fill="#d5f3eb"/>
        <ellipse id="Ellipse_24" data-name="Ellipse 24" cx="1" cy="1.5" rx="1" ry="1.5" transform="translate(34.481 20.123)" fill="#d5f3eb"/>
        <ellipse id="Ellipse_25" data-name="Ellipse 25" cx="1" cy="1.5" rx="1" ry="1.5" transform="translate(68.481 20.123)" fill="#d5f3eb"/>
        <ellipse id="Ellipse_26" data-name="Ellipse 26" cx="1" cy="1.5" rx="1" ry="1.5" transform="translate(61.481 20.123)" fill="#d5f3eb"/>
        <circle id="Ellipse_27" data-name="Ellipse 27" cx="1" cy="1" r="1" transform="translate(0.481 34.123)" fill="#d5f3eb"/>
        <circle id="Ellipse_28" data-name="Ellipse 28" cx="1" cy="1" r="1" transform="translate(20.481 34.123)" fill="#d5f3eb"/>
        <ellipse id="Ellipse_29" data-name="Ellipse 29" cx="1.5" cy="1" rx="1.5" ry="1" transform="translate(47.481 34.123)" fill="#d5f3eb"/>
        <ellipse id="Ellipse_30" data-name="Ellipse 30" cx="1.5" cy="1" rx="1.5" ry="1" transform="translate(6.481 34.123)" fill="#d5f3eb"/>
        <circle id="Ellipse_31" data-name="Ellipse 31" cx="1" cy="1" r="1" transform="translate(27.481 34.123)" fill="#d5f3eb"/>
        <circle id="Ellipse_32" data-name="Ellipse 32" cx="1" cy="1" r="1" transform="translate(54.481 34.123)" fill="#d5f3eb"/>
        <circle id="Ellipse_33" data-name="Ellipse 33" cx="1" cy="1" r="1" transform="translate(13.481 34.123)" fill="#d5f3eb"/>
        <circle id="Ellipse_34" data-name="Ellipse 34" cx="1" cy="1" r="1" transform="translate(41.481 34.123)" fill="#d5f3eb"/>
        <circle id="Ellipse_35" data-name="Ellipse 35" cx="1" cy="1" r="1" transform="translate(34.481 34.123)" fill="#d5f3eb"/>
        <circle id="Ellipse_36" data-name="Ellipse 36" cx="1" cy="1" r="1" transform="translate(68.481 34.123)" fill="#d5f3eb"/>
        <circle id="Ellipse_37" data-name="Ellipse 37" cx="1" cy="1" r="1" transform="translate(61.481 34.123)" fill="#d5f3eb"/>
        <circle id="Ellipse_38" data-name="Ellipse 38" cx="1" cy="1" r="1" transform="translate(0.481 7.123)" fill="#d5f3eb"/>
        <circle id="Ellipse_39" data-name="Ellipse 39" cx="1" cy="1" r="1" transform="translate(20.481 7.123)" fill="#d5f3eb"/>
        <ellipse id="Ellipse_40" data-name="Ellipse 40" cx="1.5" cy="1" rx="1.5" ry="1" transform="translate(47.481 7.123)" fill="#d5f3eb"/>
        <ellipse id="Ellipse_41" data-name="Ellipse 41" cx="1.5" cy="1" rx="1.5" ry="1" transform="translate(6.481 7.123)" fill="#d5f3eb"/>
        <circle id="Ellipse_42" data-name="Ellipse 42" cx="1" cy="1" r="1" transform="translate(27.481 7.123)" fill="#d5f3eb"/>
        <circle id="Ellipse_43" data-name="Ellipse 43" cx="1" cy="1" r="1" transform="translate(54.481 7.123)" fill="#d5f3eb"/>
        <circle id="Ellipse_44" data-name="Ellipse 44" cx="1" cy="1" r="1" transform="translate(13.481 7.123)" fill="#d5f3eb"/>
        <circle id="Ellipse_45" data-name="Ellipse 45" cx="1" cy="1" r="1" transform="translate(41.481 7.123)" fill="#d5f3eb"/>
        <circle id="Ellipse_46" data-name="Ellipse 46" cx="1" cy="1" r="1" transform="translate(34.481 7.123)" fill="#d5f3eb"/>
        <circle id="Ellipse_47" data-name="Ellipse 47" cx="1" cy="1" r="1" transform="translate(68.481 7.123)" fill="#d5f3eb"/>
        <circle id="Ellipse_48" data-name="Ellipse 48" cx="1" cy="1" r="1" transform="translate(61.481 7.123)" fill="#d5f3eb"/>
        <circle id="Ellipse_49" data-name="Ellipse 49" cx="1" cy="1" r="1" transform="translate(0.481 41.123)" fill="#d5f3eb"/>
        <circle id="Ellipse_50" data-name="Ellipse 50" cx="1" cy="1" r="1" transform="translate(20.481 41.123)" fill="#d5f3eb"/>
        <ellipse id="Ellipse_51" data-name="Ellipse 51" cx="1.5" cy="1" rx="1.5" ry="1" transform="translate(47.481 41.123)" fill="#d5f3eb"/>
        <ellipse id="Ellipse_52" data-name="Ellipse 52" cx="1.5" cy="1" rx="1.5" ry="1" transform="translate(6.481 41.123)" fill="#d5f3eb"/>
        <circle id="Ellipse_53" data-name="Ellipse 53" cx="1" cy="1" r="1" transform="translate(27.481 41.123)" fill="#d5f3eb"/>
        <circle id="Ellipse_54" data-name="Ellipse 54" cx="1" cy="1" r="1" transform="translate(54.481 41.123)" fill="#d5f3eb"/>
        <circle id="Ellipse_55" data-name="Ellipse 55" cx="1" cy="1" r="1" transform="translate(13.481 41.123)" fill="#d5f3eb"/>
        <circle id="Ellipse_56" data-name="Ellipse 56" cx="1" cy="1" r="1" transform="translate(41.481 41.123)" fill="#d5f3eb"/>
        <circle id="Ellipse_57" data-name="Ellipse 57" cx="1" cy="1" r="1" transform="translate(34.481 41.123)" fill="#d5f3eb"/>
        <circle id="Ellipse_58" data-name="Ellipse 58" cx="1" cy="1" r="1" transform="translate(68.481 41.123)" fill="#d5f3eb"/>
        <circle id="Ellipse_59" data-name="Ellipse 59" cx="1" cy="1" r="1" transform="translate(61.481 41.123)" fill="#d5f3eb"/>
        <circle id="Ellipse_60" data-name="Ellipse 60" cx="1" cy="1" r="1" transform="translate(0.481 14.123)" fill="#d5f3eb"/>
        <circle id="Ellipse_61" data-name="Ellipse 61" cx="1" cy="1" r="1" transform="translate(20.481 14.123)" fill="#d5f3eb"/>
        <ellipse id="Ellipse_62" data-name="Ellipse 62" cx="1.5" cy="1" rx="1.5" ry="1" transform="translate(47.481 14.123)" fill="#d5f3eb"/>
        <ellipse id="Ellipse_63" data-name="Ellipse 63" cx="1.5" cy="1" rx="1.5" ry="1" transform="translate(6.481 14.123)" fill="#d5f3eb"/>
        <circle id="Ellipse_64" data-name="Ellipse 64" cx="1" cy="1" r="1" transform="translate(27.481 14.123)" fill="#d5f3eb"/>
        <circle id="Ellipse_65" data-name="Ellipse 65" cx="1" cy="1" r="1" transform="translate(54.481 14.123)" fill="#d5f3eb"/>
        <circle id="Ellipse_66" data-name="Ellipse 66" cx="1" cy="1" r="1" transform="translate(13.481 14.123)" fill="#d5f3eb"/>
        <circle id="Ellipse_67" data-name="Ellipse 67" cx="1" cy="1" r="1" transform="translate(41.481 14.123)" fill="#d5f3eb"/>
        <circle id="Ellipse_68" data-name="Ellipse 68" cx="1" cy="1" r="1" transform="translate(34.481 14.123)" fill="#d5f3eb"/>
        <circle id="Ellipse_69" data-name="Ellipse 69" cx="1" cy="1" r="1" transform="translate(68.481 14.123)" fill="#d5f3eb"/>
        <circle id="Ellipse_70" data-name="Ellipse 70" cx="1" cy="1" r="1" transform="translate(61.481 14.123)" fill="#d5f3eb"/>
        <ellipse id="Ellipse_71" data-name="Ellipse 71" cx="1" cy="1.5" rx="1" ry="1.5" transform="translate(0.481 27.123)" fill="#d5f3eb"/>
        <ellipse id="Ellipse_72" data-name="Ellipse 72" cx="1" cy="1.5" rx="1" ry="1.5" transform="translate(20.481 27.123)" fill="#d5f3eb"/>
        <circle id="Ellipse_73" data-name="Ellipse 73" cx="1.5" cy="1.5" r="1.5" transform="translate(47.481 27.123)" fill="#d5f3eb"/>
        <circle id="Ellipse_74" data-name="Ellipse 74" cx="1.5" cy="1.5" r="1.5" transform="translate(6.481 27.123)" fill="#d5f3eb"/>
        <ellipse id="Ellipse_75" data-name="Ellipse 75" cx="1" cy="1.5" rx="1" ry="1.5" transform="translate(27.481 27.123)" fill="#d5f3eb"/>
        <ellipse id="Ellipse_76" data-name="Ellipse 76" cx="1" cy="1.5" rx="1" ry="1.5" transform="translate(54.481 27.123)" fill="#d5f3eb"/>
        <ellipse id="Ellipse_77" data-name="Ellipse 77" cx="1" cy="1.5" rx="1" ry="1.5" transform="translate(13.481 27.123)" fill="#d5f3eb"/>
        <ellipse id="Ellipse_78" data-name="Ellipse 78" cx="1" cy="1.5" rx="1" ry="1.5" transform="translate(41.481 27.123)" fill="#d5f3eb"/>
        <ellipse id="Ellipse_79" data-name="Ellipse 79" cx="1" cy="1.5" rx="1" ry="1.5" transform="translate(34.481 27.123)" fill="#d5f3eb"/>
        <ellipse id="Ellipse_80" data-name="Ellipse 80" cx="1" cy="1.5" rx="1" ry="1.5" transform="translate(68.481 27.123)" fill="#d5f3eb"/>
        <ellipse id="Ellipse_81" data-name="Ellipse 81" cx="1" cy="1.5" rx="1" ry="1.5" transform="translate(61.481 27.123)" fill="#d5f3eb"/>
        <circle id="Ellipse_82" data-name="Ellipse 82" cx="1" cy="1" r="1" transform="translate(0.481 0.123)" fill="#d5f3eb"/>
        <circle id="Ellipse_83" data-name="Ellipse 83" cx="1" cy="1" r="1" transform="translate(20.481 0.123)" fill="#d5f3eb"/>
        <ellipse id="Ellipse_84" data-name="Ellipse 84" cx="1.5" cy="1" rx="1.5" ry="1" transform="translate(47.481 0.123)" fill="#d5f3eb"/>
        <ellipse id="Ellipse_85" data-name="Ellipse 85" cx="1.5" cy="1" rx="1.5" ry="1" transform="translate(6.481 0.123)" fill="#d5f3eb"/>
        <circle id="Ellipse_86" data-name="Ellipse 86" cx="1" cy="1" r="1" transform="translate(27.481 0.123)" fill="#d5f3eb"/>
        <circle id="Ellipse_87" data-name="Ellipse 87" cx="1" cy="1" r="1" transform="translate(54.481 0.123)" fill="#d5f3eb"/>
        <circle id="Ellipse_88" data-name="Ellipse 88" cx="1" cy="1" r="1" transform="translate(13.481 0.123)" fill="#d5f3eb"/>
        <circle id="Ellipse_89" data-name="Ellipse 89" cx="1" cy="1" r="1" transform="translate(41.481 0.123)" fill="#d5f3eb"/>
        <circle id="Ellipse_90" data-name="Ellipse 90" cx="1" cy="1" r="1" transform="translate(34.481 0.123)" fill="#d5f3eb"/>
        <circle id="Ellipse_91" data-name="Ellipse 91" cx="1" cy="1" r="1" transform="translate(68.481 0.123)" fill="#d5f3eb"/>
        <circle id="Ellipse_92" data-name="Ellipse 92" cx="1" cy="1" r="1" transform="translate(61.481 0.123)" fill="#d5f3eb"/>
      </g>
      <path id="Path_4" data-name="Path 4" d="M14,10.279A2.279,2.279,0,0,1,16.279,8H115.4a2.279,2.279,0,0,1,2.279,2.279V22.812A2.279,2.279,0,0,1,115.4,25.09H16.279A2.279,2.279,0,0,1,14,22.812Z" transform="translate(4.951 -0.164)" fill="#67c473"/>
    </g>
    <path id="Icon_map-accounting" data-name="Icon map-accounting" d="M21.8.72H5.622A2.262,2.262,0,0,0,3.6,3.152V27.47A2.262,2.262,0,0,0,5.622,29.9H21.8A2.262,2.262,0,0,0,23.82,27.47V3.152A2.262,2.262,0,0,0,21.8.72ZM9.666,25.038a1.131,1.131,0,0,1-1.011,1.216H6.633a1.131,1.131,0,0,1-1.011-1.216V24.43a1.131,1.131,0,0,1,1.011-1.216H8.655A1.131,1.131,0,0,1,9.666,24.43Zm0-4.864A1.131,1.131,0,0,1,8.655,21.39H6.633a1.131,1.131,0,0,1-1.011-1.216v-.608a1.131,1.131,0,0,1,1.011-1.216H8.655a1.131,1.131,0,0,1,1.011,1.216Zm0-4.864a1.131,1.131,0,0,1-1.011,1.216H6.633a1.131,1.131,0,0,1-1.011-1.216V14.7a1.131,1.131,0,0,1,1.011-1.216H8.655A1.131,1.131,0,0,1,9.666,14.7Zm6.066,9.727a1.131,1.131,0,0,1-1.011,1.216H12.7a1.131,1.131,0,0,1-1.011-1.216V24.43A1.131,1.131,0,0,1,12.7,23.214h2.022a1.131,1.131,0,0,1,1.011,1.216v.608Zm0-4.864a1.131,1.131,0,0,1-1.011,1.216H12.7a1.131,1.131,0,0,1-1.011-1.216v-.608A1.131,1.131,0,0,1,12.7,18.351h2.022a1.131,1.131,0,0,1,1.011,1.216v.608Zm0-4.864a1.131,1.131,0,0,1-1.011,1.216H12.7a1.131,1.131,0,0,1-1.011-1.216V14.7A1.131,1.131,0,0,1,12.7,13.487h2.022A1.131,1.131,0,0,1,15.732,14.7v.608ZM21.8,25.038a1.131,1.131,0,0,1-1.011,1.216H18.765a1.131,1.131,0,0,1-1.011-1.216V24.43a1.131,1.131,0,0,1,1.011-1.216h2.022A1.131,1.131,0,0,1,21.8,24.43v.608Zm0-4.864a1.131,1.131,0,0,1-1.011,1.216H18.765a1.131,1.131,0,0,1-1.011-1.216v-.608a1.131,1.131,0,0,1,1.011-1.216h2.022A1.131,1.131,0,0,1,21.8,19.566v.608Zm0-4.864a1.131,1.131,0,0,1-1.011,1.216H18.765a1.131,1.131,0,0,1-1.011-1.216V14.7a1.131,1.131,0,0,1,1.011-1.216h2.022A1.131,1.131,0,0,1,21.8,14.7v.608Zm0-5.472a1.131,1.131,0,0,1-1.011,1.216H6.633A1.131,1.131,0,0,1,5.622,9.839V4.976A1.131,1.131,0,0,1,6.633,3.76H20.787A1.131,1.131,0,0,1,21.8,4.976Z" transform="translate(337.67 14.189)" fill="#4a70f6"/>
    <g id="Rectangle_2" data-name="Rectangle 2" transform="translate(349 22)" fill="none" stroke="#4a70f6" stroke-width="1">
      <rect width="9" height="2" stroke="none"/>
      <rect x="0.5" y="0.5" width="8" height="1" fill="none"/>
    </g>
    <g id="Rectangle_3" data-name="Rectangle 3" transform="translate(344 19)" fill="none" stroke="#4a70f6" stroke-width="1">
      <rect width="1" height="1" stroke="none"/>
      <rect x="0.5" y="0.5" fill="none"/>
    </g>
    <text id="Best_Platform" data-name="Best Platform" transform="translate(31 22)" fill="#fff" font-size="11" font-family="SegoeUI-Semibold, Segoe UI" font-weight="600"><tspan x="0" y="0">BEST PLATFORM</tspan></text>
    <text id="Economic_Times_ranks_ClearTax_as_the_best_tax_website_in_India" data-name="Economic Times ranks
ClearTax as the best tax website in India" transform="translate(23 48)" fill="#fff" font-size="11" font-family="SegoeUI-Semibold, Segoe UI" font-weight="600"><tspan x="0" y="0">Economic Times ranks</tspan><tspan fill="#a3b6f9"><tspan x="0" y="15">ClearTax as the best tax website in India</tspan></tspan></text>
  </g>
</svg>
